<?xml version="1.0" encoding="UTF-8"?>
<svg version="1.1" baseProfile="tiny" xmlns="http://www.w3.org/2000/svg" width="300" height="300">
<rect shape-rendering="optimizeSpeed"  x="0" y="0" width="300" height="300" fill="white" />
<rect shape-rendering="optimizeSpeed"  x="18" y="18" width="8" height="8" fill="black" />
<rect shape-rendering="optimizeSpeed"  x="26" y="18" width="8" height="8" fill="black" />
<rect shape-rendering="optimizeSpeed"  x="34" y="18" width="8" height="8" fill="black" />
<rect shape-rendering="optimizeSpeed"  x="42" y="18" width="8" height="8" fill="black" />
<rect shape-rendering="optimizeSpeed"  x="50" y="18" width="8" height="8" fill="black" />
<rect shape-rendering="optimizeSpeed"  x="58" y="18" width="8" height="8" fill="black" />
<rect shape-rendering="optimizeSpeed"  x="66" y="18" width="8" height="8" fill="black" />
<rect shape-rendering="optimizeSpeed"  x="98" y="18" width="8" height="8" fill="black" />
<rect shape-rendering="optimizeSpeed"  x="114" y="18" width="8" height="8" fill="black" />
<rect shape-rendering="optimizeSpeed"  x="122" y="18" width="8" height="8" fill="black" />
<rect shape-rendering="optimizeSpeed"  x="130" y="18" width="8" height="8" fill="black" />
<rect shape-rendering="optimizeSpeed"  x="138" y="18" width="8" height="8" fill="black" />
<rect shape-rendering="optimizeSpeed"  x="146" y="18" width="8" height="8" fill="black" />
<rect shape-rendering="optimizeSpeed"  x="170" y="18" width="8" height="8" fill="black" />
<rect shape-rendering="optimizeSpeed"  x="178" y="18" width="8" height="8" fill="black" />
<rect shape-rendering="optimizeSpeed"  x="186" y="18" width="8" height="8" fill="black" />
<rect shape-rendering="optimizeSpeed"  x="194" y="18" width="8" height="8" fill="black" />
<rect shape-rendering="optimizeSpeed"  x="202" y="18" width="8" height="8" fill="black" />
<rect shape-rendering="optimizeSpeed"  x="226" y="18" width="8" height="8" fill="black" />
<rect shape-rendering="optimizeSpeed"  x="234" y="18" width="8" height="8" fill="black" />
<rect shape-rendering="optimizeSpeed"  x="242" y="18" width="8" height="8" fill="black" />
<rect shape-rendering="optimizeSpeed"  x="250" y="18" width="8" height="8" fill="black" />
<rect shape-rendering="optimizeSpeed"  x="258" y="18" width="8" height="8" fill="black" />
<rect shape-rendering="optimizeSpeed"  x="266" y="18" width="8" height="8" fill="black" />
<rect shape-rendering="optimizeSpeed"  x="274" y="18" width="8" height="8" fill="black" />
<rect shape-rendering="optimizeSpeed"  x="18" y="26" width="8" height="8" fill="black" />
<rect shape-rendering="optimizeSpeed"  x="66" y="26" width="8" height="8" fill="black" />
<rect shape-rendering="optimizeSpeed"  x="82" y="26" width="8" height="8" fill="black" />
<rect shape-rendering="optimizeSpeed"  x="98" y="26" width="8" height="8" fill="black" />
<rect shape-rendering="optimizeSpeed"  x="138" y="26" width="8" height="8" fill="black" />
<rect shape-rendering="optimizeSpeed"  x="178" y="26" width="8" height="8" fill="black" />
<rect shape-rendering="optimizeSpeed"  x="186" y="26" width="8" height="8" fill="black" />
<rect shape-rendering="optimizeSpeed"  x="194" y="26" width="8" height="8" fill="black" />
<rect shape-rendering="optimizeSpeed"  x="226" y="26" width="8" height="8" fill="black" />
<rect shape-rendering="optimizeSpeed"  x="274" y="26" width="8" height="8" fill="black" />
<rect shape-rendering="optimizeSpeed"  x="18" y="34" width="8" height="8" fill="black" />
<rect shape-rendering="optimizeSpeed"  x="34" y="34" width="8" height="8" fill="black" />
<rect shape-rendering="optimizeSpeed"  x="42" y="34" width="8" height="8" fill="black" />
<rect shape-rendering="optimizeSpeed"  x="50" y="34" width="8" height="8" fill="black" />
<rect shape-rendering="optimizeSpeed"  x="66" y="34" width="8" height="8" fill="black" />
<rect shape-rendering="optimizeSpeed"  x="114" y="34" width="8" height="8" fill="black" />
<rect shape-rendering="optimizeSpeed"  x="138" y="34" width="8" height="8" fill="black" />
<rect shape-rendering="optimizeSpeed"  x="162" y="34" width="8" height="8" fill="black" />
<rect shape-rendering="optimizeSpeed"  x="178" y="34" width="8" height="8" fill="black" />
<rect shape-rendering="optimizeSpeed"  x="186" y="34" width="8" height="8" fill="black" />
<rect shape-rendering="optimizeSpeed"  x="210" y="34" width="8" height="8" fill="black" />
<rect shape-rendering="optimizeSpeed"  x="226" y="34" width="8" height="8" fill="black" />
<rect shape-rendering="optimizeSpeed"  x="242" y="34" width="8" height="8" fill="black" />
<rect shape-rendering="optimizeSpeed"  x="250" y="34" width="8" height="8" fill="black" />
<rect shape-rendering="optimizeSpeed"  x="258" y="34" width="8" height="8" fill="black" />
<rect shape-rendering="optimizeSpeed"  x="274" y="34" width="8" height="8" fill="black" />
<rect shape-rendering="optimizeSpeed"  x="18" y="42" width="8" height="8" fill="black" />
<rect shape-rendering="optimizeSpeed"  x="34" y="42" width="8" height="8" fill="black" />
<rect shape-rendering="optimizeSpeed"  x="42" y="42" width="8" height="8" fill="black" />
<rect shape-rendering="optimizeSpeed"  x="50" y="42" width="8" height="8" fill="black" />
<rect shape-rendering="optimizeSpeed"  x="66" y="42" width="8" height="8" fill="black" />
<rect shape-rendering="optimizeSpeed"  x="82" y="42" width="8" height="8" fill="black" />
<rect shape-rendering="optimizeSpeed"  x="90" y="42" width="8" height="8" fill="black" />
<rect shape-rendering="optimizeSpeed"  x="98" y="42" width="8" height="8" fill="black" />
<rect shape-rendering="optimizeSpeed"  x="114" y="42" width="8" height="8" fill="black" />
<rect shape-rendering="optimizeSpeed"  x="130" y="42" width="8" height="8" fill="black" />
<rect shape-rendering="optimizeSpeed"  x="138" y="42" width="8" height="8" fill="black" />
<rect shape-rendering="optimizeSpeed"  x="146" y="42" width="8" height="8" fill="black" />
<rect shape-rendering="optimizeSpeed"  x="154" y="42" width="8" height="8" fill="black" />
<rect shape-rendering="optimizeSpeed"  x="162" y="42" width="8" height="8" fill="black" />
<rect shape-rendering="optimizeSpeed"  x="194" y="42" width="8" height="8" fill="black" />
<rect shape-rendering="optimizeSpeed"  x="210" y="42" width="8" height="8" fill="black" />
<rect shape-rendering="optimizeSpeed"  x="226" y="42" width="8" height="8" fill="black" />
<rect shape-rendering="optimizeSpeed"  x="242" y="42" width="8" height="8" fill="black" />
<rect shape-rendering="optimizeSpeed"  x="250" y="42" width="8" height="8" fill="black" />
<rect shape-rendering="optimizeSpeed"  x="258" y="42" width="8" height="8" fill="black" />
<rect shape-rendering="optimizeSpeed"  x="274" y="42" width="8" height="8" fill="black" />
<rect shape-rendering="optimizeSpeed"  x="18" y="50" width="8" height="8" fill="black" />
<rect shape-rendering="optimizeSpeed"  x="34" y="50" width="8" height="8" fill="black" />
<rect shape-rendering="optimizeSpeed"  x="42" y="50" width="8" height="8" fill="black" />
<rect shape-rendering="optimizeSpeed"  x="50" y="50" width="8" height="8" fill="black" />
<rect shape-rendering="optimizeSpeed"  x="66" y="50" width="8" height="8" fill="black" />
<rect shape-rendering="optimizeSpeed"  x="90" y="50" width="8" height="8" fill="black" />
<rect shape-rendering="optimizeSpeed"  x="130" y="50" width="8" height="8" fill="black" />
<rect shape-rendering="optimizeSpeed"  x="138" y="50" width="8" height="8" fill="black" />
<rect shape-rendering="optimizeSpeed"  x="146" y="50" width="8" height="8" fill="black" />
<rect shape-rendering="optimizeSpeed"  x="154" y="50" width="8" height="8" fill="black" />
<rect shape-rendering="optimizeSpeed"  x="170" y="50" width="8" height="8" fill="black" />
<rect shape-rendering="optimizeSpeed"  x="178" y="50" width="8" height="8" fill="black" />
<rect shape-rendering="optimizeSpeed"  x="186" y="50" width="8" height="8" fill="black" />
<rect shape-rendering="optimizeSpeed"  x="202" y="50" width="8" height="8" fill="black" />
<rect shape-rendering="optimizeSpeed"  x="226" y="50" width="8" height="8" fill="black" />
<rect shape-rendering="optimizeSpeed"  x="242" y="50" width="8" height="8" fill="black" />
<rect shape-rendering="optimizeSpeed"  x="250" y="50" width="8" height="8" fill="black" />
<rect shape-rendering="optimizeSpeed"  x="258" y="50" width="8" height="8" fill="black" />
<rect shape-rendering="optimizeSpeed"  x="274" y="50" width="8" height="8" fill="black" />
<rect shape-rendering="optimizeSpeed"  x="18" y="58" width="8" height="8" fill="black" />
<rect shape-rendering="optimizeSpeed"  x="66" y="58" width="8" height="8" fill="black" />
<rect shape-rendering="optimizeSpeed"  x="82" y="58" width="8" height="8" fill="black" />
<rect shape-rendering="optimizeSpeed"  x="90" y="58" width="8" height="8" fill="black" />
<rect shape-rendering="optimizeSpeed"  x="106" y="58" width="8" height="8" fill="black" />
<rect shape-rendering="optimizeSpeed"  x="114" y="58" width="8" height="8" fill="black" />
<rect shape-rendering="optimizeSpeed"  x="138" y="58" width="8" height="8" fill="black" />
<rect shape-rendering="optimizeSpeed"  x="146" y="58" width="8" height="8" fill="black" />
<rect shape-rendering="optimizeSpeed"  x="186" y="58" width="8" height="8" fill="black" />
<rect shape-rendering="optimizeSpeed"  x="210" y="58" width="8" height="8" fill="black" />
<rect shape-rendering="optimizeSpeed"  x="226" y="58" width="8" height="8" fill="black" />
<rect shape-rendering="optimizeSpeed"  x="274" y="58" width="8" height="8" fill="black" />
<rect shape-rendering="optimizeSpeed"  x="18" y="66" width="8" height="8" fill="black" />
<rect shape-rendering="optimizeSpeed"  x="26" y="66" width="8" height="8" fill="black" />
<rect shape-rendering="optimizeSpeed"  x="34" y="66" width="8" height="8" fill="black" />
<rect shape-rendering="optimizeSpeed"  x="42" y="66" width="8" height="8" fill="black" />
<rect shape-rendering="optimizeSpeed"  x="50" y="66" width="8" height="8" fill="black" />
<rect shape-rendering="optimizeSpeed"  x="58" y="66" width="8" height="8" fill="black" />
<rect shape-rendering="optimizeSpeed"  x="66" y="66" width="8" height="8" fill="black" />
<rect shape-rendering="optimizeSpeed"  x="82" y="66" width="8" height="8" fill="black" />
<rect shape-rendering="optimizeSpeed"  x="98" y="66" width="8" height="8" fill="black" />
<rect shape-rendering="optimizeSpeed"  x="114" y="66" width="8" height="8" fill="black" />
<rect shape-rendering="optimizeSpeed"  x="130" y="66" width="8" height="8" fill="black" />
<rect shape-rendering="optimizeSpeed"  x="146" y="66" width="8" height="8" fill="black" />
<rect shape-rendering="optimizeSpeed"  x="162" y="66" width="8" height="8" fill="black" />
<rect shape-rendering="optimizeSpeed"  x="178" y="66" width="8" height="8" fill="black" />
<rect shape-rendering="optimizeSpeed"  x="194" y="66" width="8" height="8" fill="black" />
<rect shape-rendering="optimizeSpeed"  x="210" y="66" width="8" height="8" fill="black" />
<rect shape-rendering="optimizeSpeed"  x="226" y="66" width="8" height="8" fill="black" />
<rect shape-rendering="optimizeSpeed"  x="234" y="66" width="8" height="8" fill="black" />
<rect shape-rendering="optimizeSpeed"  x="242" y="66" width="8" height="8" fill="black" />
<rect shape-rendering="optimizeSpeed"  x="250" y="66" width="8" height="8" fill="black" />
<rect shape-rendering="optimizeSpeed"  x="258" y="66" width="8" height="8" fill="black" />
<rect shape-rendering="optimizeSpeed"  x="266" y="66" width="8" height="8" fill="black" />
<rect shape-rendering="optimizeSpeed"  x="274" y="66" width="8" height="8" fill="black" />
<rect shape-rendering="optimizeSpeed"  x="90" y="74" width="8" height="8" fill="black" />
<rect shape-rendering="optimizeSpeed"  x="98" y="74" width="8" height="8" fill="black" />
<rect shape-rendering="optimizeSpeed"  x="106" y="74" width="8" height="8" fill="black" />
<rect shape-rendering="optimizeSpeed"  x="170" y="74" width="8" height="8" fill="black" />
<rect shape-rendering="optimizeSpeed"  x="186" y="74" width="8" height="8" fill="black" />
<rect shape-rendering="optimizeSpeed"  x="194" y="74" width="8" height="8" fill="black" />
<rect shape-rendering="optimizeSpeed"  x="202" y="74" width="8" height="8" fill="black" />
<rect shape-rendering="optimizeSpeed"  x="18" y="82" width="8" height="8" fill="black" />
<rect shape-rendering="optimizeSpeed"  x="26" y="82" width="8" height="8" fill="black" />
<rect shape-rendering="optimizeSpeed"  x="34" y="82" width="8" height="8" fill="black" />
<rect shape-rendering="optimizeSpeed"  x="42" y="82" width="8" height="8" fill="black" />
<rect shape-rendering="optimizeSpeed"  x="50" y="82" width="8" height="8" fill="black" />
<rect shape-rendering="optimizeSpeed"  x="66" y="82" width="8" height="8" fill="black" />
<rect shape-rendering="optimizeSpeed"  x="74" y="82" width="8" height="8" fill="black" />
<rect shape-rendering="optimizeSpeed"  x="82" y="82" width="8" height="8" fill="black" />
<rect shape-rendering="optimizeSpeed"  x="90" y="82" width="8" height="8" fill="black" />
<rect shape-rendering="optimizeSpeed"  x="106" y="82" width="8" height="8" fill="black" />
<rect shape-rendering="optimizeSpeed"  x="138" y="82" width="8" height="8" fill="black" />
<rect shape-rendering="optimizeSpeed"  x="146" y="82" width="8" height="8" fill="black" />
<rect shape-rendering="optimizeSpeed"  x="178" y="82" width="8" height="8" fill="black" />
<rect shape-rendering="optimizeSpeed"  x="194" y="82" width="8" height="8" fill="black" />
<rect shape-rendering="optimizeSpeed"  x="218" y="82" width="8" height="8" fill="black" />
<rect shape-rendering="optimizeSpeed"  x="234" y="82" width="8" height="8" fill="black" />
<rect shape-rendering="optimizeSpeed"  x="250" y="82" width="8" height="8" fill="black" />
<rect shape-rendering="optimizeSpeed"  x="266" y="82" width="8" height="8" fill="black" />
<rect shape-rendering="optimizeSpeed"  x="18" y="90" width="8" height="8" fill="black" />
<rect shape-rendering="optimizeSpeed"  x="26" y="90" width="8" height="8" fill="black" />
<rect shape-rendering="optimizeSpeed"  x="34" y="90" width="8" height="8" fill="black" />
<rect shape-rendering="optimizeSpeed"  x="42" y="90" width="8" height="8" fill="black" />
<rect shape-rendering="optimizeSpeed"  x="58" y="90" width="8" height="8" fill="black" />
<rect shape-rendering="optimizeSpeed"  x="74" y="90" width="8" height="8" fill="black" />
<rect shape-rendering="optimizeSpeed"  x="82" y="90" width="8" height="8" fill="black" />
<rect shape-rendering="optimizeSpeed"  x="98" y="90" width="8" height="8" fill="black" />
<rect shape-rendering="optimizeSpeed"  x="114" y="90" width="8" height="8" fill="black" />
<rect shape-rendering="optimizeSpeed"  x="122" y="90" width="8" height="8" fill="black" />
<rect shape-rendering="optimizeSpeed"  x="162" y="90" width="8" height="8" fill="black" />
<rect shape-rendering="optimizeSpeed"  x="170" y="90" width="8" height="8" fill="black" />
<rect shape-rendering="optimizeSpeed"  x="178" y="90" width="8" height="8" fill="black" />
<rect shape-rendering="optimizeSpeed"  x="186" y="90" width="8" height="8" fill="black" />
<rect shape-rendering="optimizeSpeed"  x="194" y="90" width="8" height="8" fill="black" />
<rect shape-rendering="optimizeSpeed"  x="202" y="90" width="8" height="8" fill="black" />
<rect shape-rendering="optimizeSpeed"  x="250" y="90" width="8" height="8" fill="black" />
<rect shape-rendering="optimizeSpeed"  x="258" y="90" width="8" height="8" fill="black" />
<rect shape-rendering="optimizeSpeed"  x="266" y="90" width="8" height="8" fill="black" />
<rect shape-rendering="optimizeSpeed"  x="274" y="90" width="8" height="8" fill="black" />
<rect shape-rendering="optimizeSpeed"  x="18" y="98" width="8" height="8" fill="black" />
<rect shape-rendering="optimizeSpeed"  x="26" y="98" width="8" height="8" fill="black" />
<rect shape-rendering="optimizeSpeed"  x="42" y="98" width="8" height="8" fill="black" />
<rect shape-rendering="optimizeSpeed"  x="50" y="98" width="8" height="8" fill="black" />
<rect shape-rendering="optimizeSpeed"  x="58" y="98" width="8" height="8" fill="black" />
<rect shape-rendering="optimizeSpeed"  x="66" y="98" width="8" height="8" fill="black" />
<rect shape-rendering="optimizeSpeed"  x="74" y="98" width="8" height="8" fill="black" />
<rect shape-rendering="optimizeSpeed"  x="82" y="98" width="8" height="8" fill="black" />
<rect shape-rendering="optimizeSpeed"  x="98" y="98" width="8" height="8" fill="black" />
<rect shape-rendering="optimizeSpeed"  x="122" y="98" width="8" height="8" fill="black" />
<rect shape-rendering="optimizeSpeed"  x="130" y="98" width="8" height="8" fill="black" />
<rect shape-rendering="optimizeSpeed"  x="138" y="98" width="8" height="8" fill="black" />
<rect shape-rendering="optimizeSpeed"  x="146" y="98" width="8" height="8" fill="black" />
<rect shape-rendering="optimizeSpeed"  x="178" y="98" width="8" height="8" fill="black" />
<rect shape-rendering="optimizeSpeed"  x="218" y="98" width="8" height="8" fill="black" />
<rect shape-rendering="optimizeSpeed"  x="242" y="98" width="8" height="8" fill="black" />
<rect shape-rendering="optimizeSpeed"  x="250" y="98" width="8" height="8" fill="black" />
<rect shape-rendering="optimizeSpeed"  x="258" y="98" width="8" height="8" fill="black" />
<rect shape-rendering="optimizeSpeed"  x="266" y="98" width="8" height="8" fill="black" />
<rect shape-rendering="optimizeSpeed"  x="26" y="106" width="8" height="8" fill="black" />
<rect shape-rendering="optimizeSpeed"  x="42" y="106" width="8" height="8" fill="black" />
<rect shape-rendering="optimizeSpeed"  x="74" y="106" width="8" height="8" fill="black" />
<rect shape-rendering="optimizeSpeed"  x="114" y="106" width="8" height="8" fill="black" />
<rect shape-rendering="optimizeSpeed"  x="122" y="106" width="8" height="8" fill="black" />
<rect shape-rendering="optimizeSpeed"  x="170" y="106" width="8" height="8" fill="black" />
<rect shape-rendering="optimizeSpeed"  x="186" y="106" width="8" height="8" fill="black" />
<rect shape-rendering="optimizeSpeed"  x="210" y="106" width="8" height="8" fill="black" />
<rect shape-rendering="optimizeSpeed"  x="242" y="106" width="8" height="8" fill="black" />
<rect shape-rendering="optimizeSpeed"  x="250" y="106" width="8" height="8" fill="black" />
<rect shape-rendering="optimizeSpeed"  x="258" y="106" width="8" height="8" fill="black" />
<rect shape-rendering="optimizeSpeed"  x="266" y="106" width="8" height="8" fill="black" />
<rect shape-rendering="optimizeSpeed"  x="34" y="114" width="8" height="8" fill="black" />
<rect shape-rendering="optimizeSpeed"  x="66" y="114" width="8" height="8" fill="black" />
<rect shape-rendering="optimizeSpeed"  x="90" y="114" width="8" height="8" fill="black" />
<rect shape-rendering="optimizeSpeed"  x="98" y="114" width="8" height="8" fill="black" />
<rect shape-rendering="optimizeSpeed"  x="114" y="114" width="8" height="8" fill="black" />
<rect shape-rendering="optimizeSpeed"  x="130" y="114" width="8" height="8" fill="black" />
<rect shape-rendering="optimizeSpeed"  x="194" y="114" width="8" height="8" fill="black" />
<rect shape-rendering="optimizeSpeed"  x="210" y="114" width="8" height="8" fill="black" />
<rect shape-rendering="optimizeSpeed"  x="218" y="114" width="8" height="8" fill="black" />
<rect shape-rendering="optimizeSpeed"  x="234" y="114" width="8" height="8" fill="black" />
<rect shape-rendering="optimizeSpeed"  x="242" y="114" width="8" height="8" fill="black" />
<rect shape-rendering="optimizeSpeed"  x="250" y="114" width="8" height="8" fill="black" />
<rect shape-rendering="optimizeSpeed"  x="34" y="122" width="8" height="8" fill="black" />
<rect shape-rendering="optimizeSpeed"  x="50" y="122" width="8" height="8" fill="black" />
<rect shape-rendering="optimizeSpeed"  x="58" y="122" width="8" height="8" fill="black" />
<rect shape-rendering="optimizeSpeed"  x="138" y="122" width="8" height="8" fill="black" />
<rect shape-rendering="optimizeSpeed"  x="146" y="122" width="8" height="8" fill="black" />
<rect shape-rendering="optimizeSpeed"  x="154" y="122" width="8" height="8" fill="black" />
<rect shape-rendering="optimizeSpeed"  x="162" y="122" width="8" height="8" fill="black" />
<rect shape-rendering="optimizeSpeed"  x="170" y="122" width="8" height="8" fill="black" />
<rect shape-rendering="optimizeSpeed"  x="178" y="122" width="8" height="8" fill="black" />
<rect shape-rendering="optimizeSpeed"  x="186" y="122" width="8" height="8" fill="black" />
<rect shape-rendering="optimizeSpeed"  x="194" y="122" width="8" height="8" fill="black" />
<rect shape-rendering="optimizeSpeed"  x="202" y="122" width="8" height="8" fill="black" />
<rect shape-rendering="optimizeSpeed"  x="226" y="122" width="8" height="8" fill="black" />
<rect shape-rendering="optimizeSpeed"  x="234" y="122" width="8" height="8" fill="black" />
<rect shape-rendering="optimizeSpeed"  x="250" y="122" width="8" height="8" fill="black" />
<rect shape-rendering="optimizeSpeed"  x="258" y="122" width="8" height="8" fill="black" />
<rect shape-rendering="optimizeSpeed"  x="274" y="122" width="8" height="8" fill="black" />
<rect shape-rendering="optimizeSpeed"  x="18" y="130" width="8" height="8" fill="black" />
<rect shape-rendering="optimizeSpeed"  x="50" y="130" width="8" height="8" fill="black" />
<rect shape-rendering="optimizeSpeed"  x="58" y="130" width="8" height="8" fill="black" />
<rect shape-rendering="optimizeSpeed"  x="66" y="130" width="8" height="8" fill="black" />
<rect shape-rendering="optimizeSpeed"  x="74" y="130" width="8" height="8" fill="black" />
<rect shape-rendering="optimizeSpeed"  x="82" y="130" width="8" height="8" fill="black" />
<rect shape-rendering="optimizeSpeed"  x="90" y="130" width="8" height="8" fill="black" />
<rect shape-rendering="optimizeSpeed"  x="98" y="130" width="8" height="8" fill="black" />
<rect shape-rendering="optimizeSpeed"  x="106" y="130" width="8" height="8" fill="black" />
<rect shape-rendering="optimizeSpeed"  x="114" y="130" width="8" height="8" fill="black" />
<rect shape-rendering="optimizeSpeed"  x="138" y="130" width="8" height="8" fill="black" />
<rect shape-rendering="optimizeSpeed"  x="178" y="130" width="8" height="8" fill="black" />
<rect shape-rendering="optimizeSpeed"  x="210" y="130" width="8" height="8" fill="black" />
<rect shape-rendering="optimizeSpeed"  x="218" y="130" width="8" height="8" fill="black" />
<rect shape-rendering="optimizeSpeed"  x="234" y="130" width="8" height="8" fill="black" />
<rect shape-rendering="optimizeSpeed"  x="258" y="130" width="8" height="8" fill="black" />
<rect shape-rendering="optimizeSpeed"  x="266" y="130" width="8" height="8" fill="black" />
<rect shape-rendering="optimizeSpeed"  x="18" y="138" width="8" height="8" fill="black" />
<rect shape-rendering="optimizeSpeed"  x="26" y="138" width="8" height="8" fill="black" />
<rect shape-rendering="optimizeSpeed"  x="42" y="138" width="8" height="8" fill="black" />
<rect shape-rendering="optimizeSpeed"  x="50" y="138" width="8" height="8" fill="black" />
<rect shape-rendering="optimizeSpeed"  x="74" y="138" width="8" height="8" fill="black" />
<rect shape-rendering="optimizeSpeed"  x="82" y="138" width="8" height="8" fill="black" />
<rect shape-rendering="optimizeSpeed"  x="98" y="138" width="8" height="8" fill="black" />
<rect shape-rendering="optimizeSpeed"  x="106" y="138" width="8" height="8" fill="black" />
<rect shape-rendering="optimizeSpeed"  x="130" y="138" width="8" height="8" fill="black" />
<rect shape-rendering="optimizeSpeed"  x="146" y="138" width="8" height="8" fill="black" />
<rect shape-rendering="optimizeSpeed"  x="162" y="138" width="8" height="8" fill="black" />
<rect shape-rendering="optimizeSpeed"  x="178" y="138" width="8" height="8" fill="black" />
<rect shape-rendering="optimizeSpeed"  x="186" y="138" width="8" height="8" fill="black" />
<rect shape-rendering="optimizeSpeed"  x="194" y="138" width="8" height="8" fill="black" />
<rect shape-rendering="optimizeSpeed"  x="202" y="138" width="8" height="8" fill="black" />
<rect shape-rendering="optimizeSpeed"  x="210" y="138" width="8" height="8" fill="black" />
<rect shape-rendering="optimizeSpeed"  x="218" y="138" width="8" height="8" fill="black" />
<rect shape-rendering="optimizeSpeed"  x="234" y="138" width="8" height="8" fill="black" />
<rect shape-rendering="optimizeSpeed"  x="250" y="138" width="8" height="8" fill="black" />
<rect shape-rendering="optimizeSpeed"  x="258" y="138" width="8" height="8" fill="black" />
<rect shape-rendering="optimizeSpeed"  x="34" y="146" width="8" height="8" fill="black" />
<rect shape-rendering="optimizeSpeed"  x="42" y="146" width="8" height="8" fill="black" />
<rect shape-rendering="optimizeSpeed"  x="66" y="146" width="8" height="8" fill="black" />
<rect shape-rendering="optimizeSpeed"  x="106" y="146" width="8" height="8" fill="black" />
<rect shape-rendering="optimizeSpeed"  x="138" y="146" width="8" height="8" fill="black" />
<rect shape-rendering="optimizeSpeed"  x="194" y="146" width="8" height="8" fill="black" />
<rect shape-rendering="optimizeSpeed"  x="202" y="146" width="8" height="8" fill="black" />
<rect shape-rendering="optimizeSpeed"  x="218" y="146" width="8" height="8" fill="black" />
<rect shape-rendering="optimizeSpeed"  x="242" y="146" width="8" height="8" fill="black" />
<rect shape-rendering="optimizeSpeed"  x="18" y="154" width="8" height="8" fill="black" />
<rect shape-rendering="optimizeSpeed"  x="26" y="154" width="8" height="8" fill="black" />
<rect shape-rendering="optimizeSpeed"  x="34" y="154" width="8" height="8" fill="black" />
<rect shape-rendering="optimizeSpeed"  x="42" y="154" width="8" height="8" fill="black" />
<rect shape-rendering="optimizeSpeed"  x="74" y="154" width="8" height="8" fill="black" />
<rect shape-rendering="optimizeSpeed"  x="98" y="154" width="8" height="8" fill="black" />
<rect shape-rendering="optimizeSpeed"  x="114" y="154" width="8" height="8" fill="black" />
<rect shape-rendering="optimizeSpeed"  x="122" y="154" width="8" height="8" fill="black" />
<rect shape-rendering="optimizeSpeed"  x="130" y="154" width="8" height="8" fill="black" />
<rect shape-rendering="optimizeSpeed"  x="138" y="154" width="8" height="8" fill="black" />
<rect shape-rendering="optimizeSpeed"  x="146" y="154" width="8" height="8" fill="black" />
<rect shape-rendering="optimizeSpeed"  x="154" y="154" width="8" height="8" fill="black" />
<rect shape-rendering="optimizeSpeed"  x="162" y="154" width="8" height="8" fill="black" />
<rect shape-rendering="optimizeSpeed"  x="170" y="154" width="8" height="8" fill="black" />
<rect shape-rendering="optimizeSpeed"  x="178" y="154" width="8" height="8" fill="black" />
<rect shape-rendering="optimizeSpeed"  x="194" y="154" width="8" height="8" fill="black" />
<rect shape-rendering="optimizeSpeed"  x="202" y="154" width="8" height="8" fill="black" />
<rect shape-rendering="optimizeSpeed"  x="210" y="154" width="8" height="8" fill="black" />
<rect shape-rendering="optimizeSpeed"  x="226" y="154" width="8" height="8" fill="black" />
<rect shape-rendering="optimizeSpeed"  x="266" y="154" width="8" height="8" fill="black" />
<rect shape-rendering="optimizeSpeed"  x="274" y="154" width="8" height="8" fill="black" />
<rect shape-rendering="optimizeSpeed"  x="58" y="162" width="8" height="8" fill="black" />
<rect shape-rendering="optimizeSpeed"  x="66" y="162" width="8" height="8" fill="black" />
<rect shape-rendering="optimizeSpeed"  x="74" y="162" width="8" height="8" fill="black" />
<rect shape-rendering="optimizeSpeed"  x="90" y="162" width="8" height="8" fill="black" />
<rect shape-rendering="optimizeSpeed"  x="98" y="162" width="8" height="8" fill="black" />
<rect shape-rendering="optimizeSpeed"  x="122" y="162" width="8" height="8" fill="black" />
<rect shape-rendering="optimizeSpeed"  x="130" y="162" width="8" height="8" fill="black" />
<rect shape-rendering="optimizeSpeed"  x="138" y="162" width="8" height="8" fill="black" />
<rect shape-rendering="optimizeSpeed"  x="178" y="162" width="8" height="8" fill="black" />
<rect shape-rendering="optimizeSpeed"  x="186" y="162" width="8" height="8" fill="black" />
<rect shape-rendering="optimizeSpeed"  x="218" y="162" width="8" height="8" fill="black" />
<rect shape-rendering="optimizeSpeed"  x="234" y="162" width="8" height="8" fill="black" />
<rect shape-rendering="optimizeSpeed"  x="258" y="162" width="8" height="8" fill="black" />
<rect shape-rendering="optimizeSpeed"  x="266" y="162" width="8" height="8" fill="black" />
<rect shape-rendering="optimizeSpeed"  x="26" y="170" width="8" height="8" fill="black" />
<rect shape-rendering="optimizeSpeed"  x="34" y="170" width="8" height="8" fill="black" />
<rect shape-rendering="optimizeSpeed"  x="42" y="170" width="8" height="8" fill="black" />
<rect shape-rendering="optimizeSpeed"  x="50" y="170" width="8" height="8" fill="black" />
<rect shape-rendering="optimizeSpeed"  x="90" y="170" width="8" height="8" fill="black" />
<rect shape-rendering="optimizeSpeed"  x="98" y="170" width="8" height="8" fill="black" />
<rect shape-rendering="optimizeSpeed"  x="114" y="170" width="8" height="8" fill="black" />
<rect shape-rendering="optimizeSpeed"  x="122" y="170" width="8" height="8" fill="black" />
<rect shape-rendering="optimizeSpeed"  x="146" y="170" width="8" height="8" fill="black" />
<rect shape-rendering="optimizeSpeed"  x="162" y="170" width="8" height="8" fill="black" />
<rect shape-rendering="optimizeSpeed"  x="170" y="170" width="8" height="8" fill="black" />
<rect shape-rendering="optimizeSpeed"  x="186" y="170" width="8" height="8" fill="black" />
<rect shape-rendering="optimizeSpeed"  x="194" y="170" width="8" height="8" fill="black" />
<rect shape-rendering="optimizeSpeed"  x="210" y="170" width="8" height="8" fill="black" />
<rect shape-rendering="optimizeSpeed"  x="218" y="170" width="8" height="8" fill="black" />
<rect shape-rendering="optimizeSpeed"  x="258" y="170" width="8" height="8" fill="black" />
<rect shape-rendering="optimizeSpeed"  x="18" y="178" width="8" height="8" fill="black" />
<rect shape-rendering="optimizeSpeed"  x="26" y="178" width="8" height="8" fill="black" />
<rect shape-rendering="optimizeSpeed"  x="58" y="178" width="8" height="8" fill="black" />
<rect shape-rendering="optimizeSpeed"  x="66" y="178" width="8" height="8" fill="black" />
<rect shape-rendering="optimizeSpeed"  x="74" y="178" width="8" height="8" fill="black" />
<rect shape-rendering="optimizeSpeed"  x="82" y="178" width="8" height="8" fill="black" />
<rect shape-rendering="optimizeSpeed"  x="90" y="178" width="8" height="8" fill="black" />
<rect shape-rendering="optimizeSpeed"  x="114" y="178" width="8" height="8" fill="black" />
<rect shape-rendering="optimizeSpeed"  x="130" y="178" width="8" height="8" fill="black" />
<rect shape-rendering="optimizeSpeed"  x="138" y="178" width="8" height="8" fill="black" />
<rect shape-rendering="optimizeSpeed"  x="178" y="178" width="8" height="8" fill="black" />
<rect shape-rendering="optimizeSpeed"  x="194" y="178" width="8" height="8" fill="black" />
<rect shape-rendering="optimizeSpeed"  x="210" y="178" width="8" height="8" fill="black" />
<rect shape-rendering="optimizeSpeed"  x="218" y="178" width="8" height="8" fill="black" />
<rect shape-rendering="optimizeSpeed"  x="242" y="178" width="8" height="8" fill="black" />
<rect shape-rendering="optimizeSpeed"  x="250" y="178" width="8" height="8" fill="black" />
<rect shape-rendering="optimizeSpeed"  x="266" y="178" width="8" height="8" fill="black" />
<rect shape-rendering="optimizeSpeed"  x="18" y="186" width="8" height="8" fill="black" />
<rect shape-rendering="optimizeSpeed"  x="42" y="186" width="8" height="8" fill="black" />
<rect shape-rendering="optimizeSpeed"  x="58" y="186" width="8" height="8" fill="black" />
<rect shape-rendering="optimizeSpeed"  x="138" y="186" width="8" height="8" fill="black" />
<rect shape-rendering="optimizeSpeed"  x="146" y="186" width="8" height="8" fill="black" />
<rect shape-rendering="optimizeSpeed"  x="162" y="186" width="8" height="8" fill="black" />
<rect shape-rendering="optimizeSpeed"  x="170" y="186" width="8" height="8" fill="black" />
<rect shape-rendering="optimizeSpeed"  x="178" y="186" width="8" height="8" fill="black" />
<rect shape-rendering="optimizeSpeed"  x="186" y="186" width="8" height="8" fill="black" />
<rect shape-rendering="optimizeSpeed"  x="194" y="186" width="8" height="8" fill="black" />
<rect shape-rendering="optimizeSpeed"  x="202" y="186" width="8" height="8" fill="black" />
<rect shape-rendering="optimizeSpeed"  x="218" y="186" width="8" height="8" fill="black" />
<rect shape-rendering="optimizeSpeed"  x="226" y="186" width="8" height="8" fill="black" />
<rect shape-rendering="optimizeSpeed"  x="266" y="186" width="8" height="8" fill="black" />
<rect shape-rendering="optimizeSpeed"  x="274" y="186" width="8" height="8" fill="black" />
<rect shape-rendering="optimizeSpeed"  x="18" y="194" width="8" height="8" fill="black" />
<rect shape-rendering="optimizeSpeed"  x="50" y="194" width="8" height="8" fill="black" />
<rect shape-rendering="optimizeSpeed"  x="66" y="194" width="8" height="8" fill="black" />
<rect shape-rendering="optimizeSpeed"  x="74" y="194" width="8" height="8" fill="black" />
<rect shape-rendering="optimizeSpeed"  x="82" y="194" width="8" height="8" fill="black" />
<rect shape-rendering="optimizeSpeed"  x="90" y="194" width="8" height="8" fill="black" />
<rect shape-rendering="optimizeSpeed"  x="106" y="194" width="8" height="8" fill="black" />
<rect shape-rendering="optimizeSpeed"  x="114" y="194" width="8" height="8" fill="black" />
<rect shape-rendering="optimizeSpeed"  x="138" y="194" width="8" height="8" fill="black" />
<rect shape-rendering="optimizeSpeed"  x="162" y="194" width="8" height="8" fill="black" />
<rect shape-rendering="optimizeSpeed"  x="178" y="194" width="8" height="8" fill="black" />
<rect shape-rendering="optimizeSpeed"  x="210" y="194" width="8" height="8" fill="black" />
<rect shape-rendering="optimizeSpeed"  x="242" y="194" width="8" height="8" fill="black" />
<rect shape-rendering="optimizeSpeed"  x="266" y="194" width="8" height="8" fill="black" />
<rect shape-rendering="optimizeSpeed"  x="18" y="202" width="8" height="8" fill="black" />
<rect shape-rendering="optimizeSpeed"  x="34" y="202" width="8" height="8" fill="black" />
<rect shape-rendering="optimizeSpeed"  x="42" y="202" width="8" height="8" fill="black" />
<rect shape-rendering="optimizeSpeed"  x="50" y="202" width="8" height="8" fill="black" />
<rect shape-rendering="optimizeSpeed"  x="58" y="202" width="8" height="8" fill="black" />
<rect shape-rendering="optimizeSpeed"  x="74" y="202" width="8" height="8" fill="black" />
<rect shape-rendering="optimizeSpeed"  x="82" y="202" width="8" height="8" fill="black" />
<rect shape-rendering="optimizeSpeed"  x="90" y="202" width="8" height="8" fill="black" />
<rect shape-rendering="optimizeSpeed"  x="98" y="202" width="8" height="8" fill="black" />
<rect shape-rendering="optimizeSpeed"  x="106" y="202" width="8" height="8" fill="black" />
<rect shape-rendering="optimizeSpeed"  x="130" y="202" width="8" height="8" fill="black" />
<rect shape-rendering="optimizeSpeed"  x="170" y="202" width="8" height="8" fill="black" />
<rect shape-rendering="optimizeSpeed"  x="178" y="202" width="8" height="8" fill="black" />
<rect shape-rendering="optimizeSpeed"  x="186" y="202" width="8" height="8" fill="black" />
<rect shape-rendering="optimizeSpeed"  x="194" y="202" width="8" height="8" fill="black" />
<rect shape-rendering="optimizeSpeed"  x="242" y="202" width="8" height="8" fill="black" />
<rect shape-rendering="optimizeSpeed"  x="258" y="202" width="8" height="8" fill="black" />
<rect shape-rendering="optimizeSpeed"  x="266" y="202" width="8" height="8" fill="black" />
<rect shape-rendering="optimizeSpeed"  x="274" y="202" width="8" height="8" fill="black" />
<rect shape-rendering="optimizeSpeed"  x="18" y="210" width="8" height="8" fill="black" />
<rect shape-rendering="optimizeSpeed"  x="66" y="210" width="8" height="8" fill="black" />
<rect shape-rendering="optimizeSpeed"  x="74" y="210" width="8" height="8" fill="black" />
<rect shape-rendering="optimizeSpeed"  x="90" y="210" width="8" height="8" fill="black" />
<rect shape-rendering="optimizeSpeed"  x="98" y="210" width="8" height="8" fill="black" />
<rect shape-rendering="optimizeSpeed"  x="106" y="210" width="8" height="8" fill="black" />
<rect shape-rendering="optimizeSpeed"  x="138" y="210" width="8" height="8" fill="black" />
<rect shape-rendering="optimizeSpeed"  x="170" y="210" width="8" height="8" fill="black" />
<rect shape-rendering="optimizeSpeed"  x="178" y="210" width="8" height="8" fill="black" />
<rect shape-rendering="optimizeSpeed"  x="202" y="210" width="8" height="8" fill="black" />
<rect shape-rendering="optimizeSpeed"  x="210" y="210" width="8" height="8" fill="black" />
<rect shape-rendering="optimizeSpeed"  x="218" y="210" width="8" height="8" fill="black" />
<rect shape-rendering="optimizeSpeed"  x="226" y="210" width="8" height="8" fill="black" />
<rect shape-rendering="optimizeSpeed"  x="234" y="210" width="8" height="8" fill="black" />
<rect shape-rendering="optimizeSpeed"  x="242" y="210" width="8" height="8" fill="black" />
<rect shape-rendering="optimizeSpeed"  x="266" y="210" width="8" height="8" fill="black" />
<rect shape-rendering="optimizeSpeed"  x="274" y="210" width="8" height="8" fill="black" />
<rect shape-rendering="optimizeSpeed"  x="82" y="218" width="8" height="8" fill="black" />
<rect shape-rendering="optimizeSpeed"  x="114" y="218" width="8" height="8" fill="black" />
<rect shape-rendering="optimizeSpeed"  x="122" y="218" width="8" height="8" fill="black" />
<rect shape-rendering="optimizeSpeed"  x="130" y="218" width="8" height="8" fill="black" />
<rect shape-rendering="optimizeSpeed"  x="138" y="218" width="8" height="8" fill="black" />
<rect shape-rendering="optimizeSpeed"  x="146" y="218" width="8" height="8" fill="black" />
<rect shape-rendering="optimizeSpeed"  x="162" y="218" width="8" height="8" fill="black" />
<rect shape-rendering="optimizeSpeed"  x="170" y="218" width="8" height="8" fill="black" />
<rect shape-rendering="optimizeSpeed"  x="210" y="218" width="8" height="8" fill="black" />
<rect shape-rendering="optimizeSpeed"  x="242" y="218" width="8" height="8" fill="black" />
<rect shape-rendering="optimizeSpeed"  x="250" y="218" width="8" height="8" fill="black" />
<rect shape-rendering="optimizeSpeed"  x="274" y="218" width="8" height="8" fill="black" />
<rect shape-rendering="optimizeSpeed"  x="18" y="226" width="8" height="8" fill="black" />
<rect shape-rendering="optimizeSpeed"  x="26" y="226" width="8" height="8" fill="black" />
<rect shape-rendering="optimizeSpeed"  x="34" y="226" width="8" height="8" fill="black" />
<rect shape-rendering="optimizeSpeed"  x="42" y="226" width="8" height="8" fill="black" />
<rect shape-rendering="optimizeSpeed"  x="50" y="226" width="8" height="8" fill="black" />
<rect shape-rendering="optimizeSpeed"  x="58" y="226" width="8" height="8" fill="black" />
<rect shape-rendering="optimizeSpeed"  x="66" y="226" width="8" height="8" fill="black" />
<rect shape-rendering="optimizeSpeed"  x="82" y="226" width="8" height="8" fill="black" />
<rect shape-rendering="optimizeSpeed"  x="122" y="226" width="8" height="8" fill="black" />
<rect shape-rendering="optimizeSpeed"  x="130" y="226" width="8" height="8" fill="black" />
<rect shape-rendering="optimizeSpeed"  x="138" y="226" width="8" height="8" fill="black" />
<rect shape-rendering="optimizeSpeed"  x="154" y="226" width="8" height="8" fill="black" />
<rect shape-rendering="optimizeSpeed"  x="162" y="226" width="8" height="8" fill="black" />
<rect shape-rendering="optimizeSpeed"  x="178" y="226" width="8" height="8" fill="black" />
<rect shape-rendering="optimizeSpeed"  x="194" y="226" width="8" height="8" fill="black" />
<rect shape-rendering="optimizeSpeed"  x="202" y="226" width="8" height="8" fill="black" />
<rect shape-rendering="optimizeSpeed"  x="210" y="226" width="8" height="8" fill="black" />
<rect shape-rendering="optimizeSpeed"  x="226" y="226" width="8" height="8" fill="black" />
<rect shape-rendering="optimizeSpeed"  x="242" y="226" width="8" height="8" fill="black" />
<rect shape-rendering="optimizeSpeed"  x="250" y="226" width="8" height="8" fill="black" />
<rect shape-rendering="optimizeSpeed"  x="266" y="226" width="8" height="8" fill="black" />
<rect shape-rendering="optimizeSpeed"  x="18" y="234" width="8" height="8" fill="black" />
<rect shape-rendering="optimizeSpeed"  x="66" y="234" width="8" height="8" fill="black" />
<rect shape-rendering="optimizeSpeed"  x="98" y="234" width="8" height="8" fill="black" />
<rect shape-rendering="optimizeSpeed"  x="114" y="234" width="8" height="8" fill="black" />
<rect shape-rendering="optimizeSpeed"  x="122" y="234" width="8" height="8" fill="black" />
<rect shape-rendering="optimizeSpeed"  x="146" y="234" width="8" height="8" fill="black" />
<rect shape-rendering="optimizeSpeed"  x="170" y="234" width="8" height="8" fill="black" />
<rect shape-rendering="optimizeSpeed"  x="178" y="234" width="8" height="8" fill="black" />
<rect shape-rendering="optimizeSpeed"  x="186" y="234" width="8" height="8" fill="black" />
<rect shape-rendering="optimizeSpeed"  x="202" y="234" width="8" height="8" fill="black" />
<rect shape-rendering="optimizeSpeed"  x="210" y="234" width="8" height="8" fill="black" />
<rect shape-rendering="optimizeSpeed"  x="242" y="234" width="8" height="8" fill="black" />
<rect shape-rendering="optimizeSpeed"  x="258" y="234" width="8" height="8" fill="black" />
<rect shape-rendering="optimizeSpeed"  x="266" y="234" width="8" height="8" fill="black" />
<rect shape-rendering="optimizeSpeed"  x="18" y="242" width="8" height="8" fill="black" />
<rect shape-rendering="optimizeSpeed"  x="34" y="242" width="8" height="8" fill="black" />
<rect shape-rendering="optimizeSpeed"  x="42" y="242" width="8" height="8" fill="black" />
<rect shape-rendering="optimizeSpeed"  x="50" y="242" width="8" height="8" fill="black" />
<rect shape-rendering="optimizeSpeed"  x="66" y="242" width="8" height="8" fill="black" />
<rect shape-rendering="optimizeSpeed"  x="82" y="242" width="8" height="8" fill="black" />
<rect shape-rendering="optimizeSpeed"  x="114" y="242" width="8" height="8" fill="black" />
<rect shape-rendering="optimizeSpeed"  x="130" y="242" width="8" height="8" fill="black" />
<rect shape-rendering="optimizeSpeed"  x="194" y="242" width="8" height="8" fill="black" />
<rect shape-rendering="optimizeSpeed"  x="210" y="242" width="8" height="8" fill="black" />
<rect shape-rendering="optimizeSpeed"  x="218" y="242" width="8" height="8" fill="black" />
<rect shape-rendering="optimizeSpeed"  x="226" y="242" width="8" height="8" fill="black" />
<rect shape-rendering="optimizeSpeed"  x="234" y="242" width="8" height="8" fill="black" />
<rect shape-rendering="optimizeSpeed"  x="242" y="242" width="8" height="8" fill="black" />
<rect shape-rendering="optimizeSpeed"  x="266" y="242" width="8" height="8" fill="black" />
<rect shape-rendering="optimizeSpeed"  x="274" y="242" width="8" height="8" fill="black" />
<rect shape-rendering="optimizeSpeed"  x="18" y="250" width="8" height="8" fill="black" />
<rect shape-rendering="optimizeSpeed"  x="34" y="250" width="8" height="8" fill="black" />
<rect shape-rendering="optimizeSpeed"  x="42" y="250" width="8" height="8" fill="black" />
<rect shape-rendering="optimizeSpeed"  x="50" y="250" width="8" height="8" fill="black" />
<rect shape-rendering="optimizeSpeed"  x="66" y="250" width="8" height="8" fill="black" />
<rect shape-rendering="optimizeSpeed"  x="82" y="250" width="8" height="8" fill="black" />
<rect shape-rendering="optimizeSpeed"  x="98" y="250" width="8" height="8" fill="black" />
<rect shape-rendering="optimizeSpeed"  x="138" y="250" width="8" height="8" fill="black" />
<rect shape-rendering="optimizeSpeed"  x="146" y="250" width="8" height="8" fill="black" />
<rect shape-rendering="optimizeSpeed"  x="154" y="250" width="8" height="8" fill="black" />
<rect shape-rendering="optimizeSpeed"  x="162" y="250" width="8" height="8" fill="black" />
<rect shape-rendering="optimizeSpeed"  x="170" y="250" width="8" height="8" fill="black" />
<rect shape-rendering="optimizeSpeed"  x="178" y="250" width="8" height="8" fill="black" />
<rect shape-rendering="optimizeSpeed"  x="210" y="250" width="8" height="8" fill="black" />
<rect shape-rendering="optimizeSpeed"  x="218" y="250" width="8" height="8" fill="black" />
<rect shape-rendering="optimizeSpeed"  x="234" y="250" width="8" height="8" fill="black" />
<rect shape-rendering="optimizeSpeed"  x="242" y="250" width="8" height="8" fill="black" />
<rect shape-rendering="optimizeSpeed"  x="250" y="250" width="8" height="8" fill="black" />
<rect shape-rendering="optimizeSpeed"  x="266" y="250" width="8" height="8" fill="black" />
<rect shape-rendering="optimizeSpeed"  x="274" y="250" width="8" height="8" fill="black" />
<rect shape-rendering="optimizeSpeed"  x="18" y="258" width="8" height="8" fill="black" />
<rect shape-rendering="optimizeSpeed"  x="34" y="258" width="8" height="8" fill="black" />
<rect shape-rendering="optimizeSpeed"  x="42" y="258" width="8" height="8" fill="black" />
<rect shape-rendering="optimizeSpeed"  x="50" y="258" width="8" height="8" fill="black" />
<rect shape-rendering="optimizeSpeed"  x="66" y="258" width="8" height="8" fill="black" />
<rect shape-rendering="optimizeSpeed"  x="82" y="258" width="8" height="8" fill="black" />
<rect shape-rendering="optimizeSpeed"  x="98" y="258" width="8" height="8" fill="black" />
<rect shape-rendering="optimizeSpeed"  x="106" y="258" width="8" height="8" fill="black" />
<rect shape-rendering="optimizeSpeed"  x="114" y="258" width="8" height="8" fill="black" />
<rect shape-rendering="optimizeSpeed"  x="138" y="258" width="8" height="8" fill="black" />
<rect shape-rendering="optimizeSpeed"  x="146" y="258" width="8" height="8" fill="black" />
<rect shape-rendering="optimizeSpeed"  x="162" y="258" width="8" height="8" fill="black" />
<rect shape-rendering="optimizeSpeed"  x="194" y="258" width="8" height="8" fill="black" />
<rect shape-rendering="optimizeSpeed"  x="202" y="258" width="8" height="8" fill="black" />
<rect shape-rendering="optimizeSpeed"  x="226" y="258" width="8" height="8" fill="black" />
<rect shape-rendering="optimizeSpeed"  x="250" y="258" width="8" height="8" fill="black" />
<rect shape-rendering="optimizeSpeed"  x="18" y="266" width="8" height="8" fill="black" />
<rect shape-rendering="optimizeSpeed"  x="66" y="266" width="8" height="8" fill="black" />
<rect shape-rendering="optimizeSpeed"  x="82" y="266" width="8" height="8" fill="black" />
<rect shape-rendering="optimizeSpeed"  x="90" y="266" width="8" height="8" fill="black" />
<rect shape-rendering="optimizeSpeed"  x="106" y="266" width="8" height="8" fill="black" />
<rect shape-rendering="optimizeSpeed"  x="130" y="266" width="8" height="8" fill="black" />
<rect shape-rendering="optimizeSpeed"  x="138" y="266" width="8" height="8" fill="black" />
<rect shape-rendering="optimizeSpeed"  x="162" y="266" width="8" height="8" fill="black" />
<rect shape-rendering="optimizeSpeed"  x="170" y="266" width="8" height="8" fill="black" />
<rect shape-rendering="optimizeSpeed"  x="186" y="266" width="8" height="8" fill="black" />
<rect shape-rendering="optimizeSpeed"  x="194" y="266" width="8" height="8" fill="black" />
<rect shape-rendering="optimizeSpeed"  x="218" y="266" width="8" height="8" fill="black" />
<rect shape-rendering="optimizeSpeed"  x="234" y="266" width="8" height="8" fill="black" />
<rect shape-rendering="optimizeSpeed"  x="250" y="266" width="8" height="8" fill="black" />
<rect shape-rendering="optimizeSpeed"  x="258" y="266" width="8" height="8" fill="black" />
<rect shape-rendering="optimizeSpeed"  x="18" y="274" width="8" height="8" fill="black" />
<rect shape-rendering="optimizeSpeed"  x="26" y="274" width="8" height="8" fill="black" />
<rect shape-rendering="optimizeSpeed"  x="34" y="274" width="8" height="8" fill="black" />
<rect shape-rendering="optimizeSpeed"  x="42" y="274" width="8" height="8" fill="black" />
<rect shape-rendering="optimizeSpeed"  x="50" y="274" width="8" height="8" fill="black" />
<rect shape-rendering="optimizeSpeed"  x="58" y="274" width="8" height="8" fill="black" />
<rect shape-rendering="optimizeSpeed"  x="66" y="274" width="8" height="8" fill="black" />
<rect shape-rendering="optimizeSpeed"  x="82" y="274" width="8" height="8" fill="black" />
<rect shape-rendering="optimizeSpeed"  x="106" y="274" width="8" height="8" fill="black" />
<rect shape-rendering="optimizeSpeed"  x="138" y="274" width="8" height="8" fill="black" />
<rect shape-rendering="optimizeSpeed"  x="178" y="274" width="8" height="8" fill="black" />
<rect shape-rendering="optimizeSpeed"  x="194" y="274" width="8" height="8" fill="black" />
<rect shape-rendering="optimizeSpeed"  x="202" y="274" width="8" height="8" fill="black" />
<rect shape-rendering="optimizeSpeed"  x="210" y="274" width="8" height="8" fill="black" />
<rect shape-rendering="optimizeSpeed"  x="218" y="274" width="8" height="8" fill="black" />
<rect shape-rendering="optimizeSpeed"  x="250" y="274" width="8" height="8" fill="black" />
<rect shape-rendering="optimizeSpeed"  x="266" y="274" width="8" height="8" fill="black" /></svg>